<?xml version="1.0" encoding="UTF-8" standalone="no"?>
<!-- Created with Inkscape (http://www.inkscape.org/) -->

<svg
   xmlns:dc="http://purl.org/dc/elements/1.1/"
   xmlns:cc="http://creativecommons.org/ns#"
   xmlns:rdf="http://www.w3.org/1999/02/22-rdf-syntax-ns#"
   xmlns:svg="http://www.w3.org/2000/svg"
   xmlns="http://www.w3.org/2000/svg"
   xmlns:sodipodi="http://sodipodi.sourceforge.net/DTD/sodipodi-0.dtd"
   xmlns:inkscape="http://www.inkscape.org/namespaces/inkscape"
   version="1.1"
   id="svg10"
   xml:space="preserve"
   width="666.66669"
   height="666.66669"
   viewBox="0 0 666.66669 666.66669"
   sodipodi:docname="shutterstock_548913859.svg"
   inkscape:version="0.92.4 (5da689c313, 2019-01-14)"><metadata
     id="metadata16"><rdf:RDF><cc:Work
         rdf:about=""><dc:format>image/svg+xml</dc:format><dc:type
           rdf:resource="http://purl.org/dc/dcmitype/StillImage" /><dc:title></dc:title></cc:Work></rdf:RDF></metadata><defs
     id="defs14" /><sodipodi:namedview
     pagecolor="#ffffff"
     bordercolor="#666666"
     borderopacity="1"
     objecttolerance="10"
     gridtolerance="10"
     guidetolerance="10"
     inkscape:pageopacity="0"
     inkscape:pageshadow="2"
     inkscape:window-width="2736"
     inkscape:window-height="1699"
     id="namedview12"
     showgrid="false"
     inkscape:zoom="2.0879999"
     inkscape:cx="195.64177"
     inkscape:cy="333.33334"
     inkscape:window-x="-13"
     inkscape:window-y="-13"
     inkscape:window-maximized="1"
     inkscape:current-layer="g20" /><g
     id="g18"
     inkscape:groupmode="layer"
     inkscape:label="ink_ext_XXXXXX"
     transform="matrix(1.3333333,0,0,-1.3333333,0,666.66667)"
     style="display:inline"><g
       id="g20"
       transform="scale(0.1)"
       style="display:inline"><path
         d="M 5000.08,0 H -0.0976563 V 5000 H 5000.08 V 0"
         style="fill:#4e833c;fill-opacity:1;fill-rule:nonzero;stroke:none"
         id="path22"
         inkscape:connector-curvature="0" /><path
         d="m 2971.13,1823.87 c -8.32,-3.31 -15.99,-4.96 -23.06,-4.96 -12.33,0 -23.36,3.94 -33.11,11.82 -12.42,10.07 -18.63,23.22 -18.63,39.42 0,16.24 6.21,29.4 18.63,39.49 9.75,7.88 20.86,11.82 33.3,11.82 6.8,0 14.42,-1.66 22.87,-4.96 v -30.45 c -2.4,2.93 -4.82,5.14 -7.3,6.65 -4.57,2.73 -9.44,4.13 -14.65,4.13 -6.62,0 -12.34,-2.03 -17.23,-5.99 -6.17,-5.04 -9.25,-11.92 -9.25,-20.69 0,-8.72 3.08,-15.6 9.25,-20.62 4.89,-3.98 10.61,-5.98 17.23,-5.98 5.21,0 10.08,1.39 14.65,4.11 2.42,1.46 4.88,3.67 7.3,6.64 v -30.43"
         style="display:none;fill:#fefefe;fill-opacity:1;fill-rule:nonzero;stroke:none"
         id="path24"
         inkscape:connector-curvature="0" /><path
         d="m 3064.8,1870.15 c 0,6.88 -2.2,12.86 -6.62,17.9 -5.64,6.4 -12.71,9.63 -21.19,9.63 -5.84,0 -11.13,-1.65 -15.88,-4.95 -4.74,-3.27 -8.12,-7.63 -10.13,-13.1 -1.16,-3.11 -1.72,-6.29 -1.72,-9.48 0,-6.62 2.2,-12.53 6.62,-17.75 5.45,-6.47 12.5,-9.7 21.11,-9.7 8.62,0 15.67,3.2 21.19,9.62 4.42,5.14 6.62,11.08 6.62,17.83 z m 26.37,0 c 0,-13.29 -4.43,-24.94 -13.26,-34.97 -10.08,-11.43 -23.71,-17.13 -40.92,-17.13 -17.15,0 -30.76,5.7 -40.86,17.13 -8.83,10.03 -13.24,21.68 -13.24,34.97 0,6.06 1.19,12.27 3.57,18.66 2.39,6.39 5.59,11.83 9.61,16.39 10.08,11.4 23.73,17.11 40.92,17.11 17.21,0 30.84,-5.71 40.92,-17.11 8.83,-10.04 13.26,-21.72 13.26,-35.05"
         style="display:none;fill:#fefefe;fill-opacity:1;fill-rule:nonzero;stroke:none"
         id="path26"
         inkscape:connector-curvature="0" /><path
         d="m 3204.96,1821.56 h -25.45 l -46.8,59.9 v -59.9 h -25.42 v 97.81 h 25.42 l 46.8,-59.82 v 59.82 h 25.45 v -97.81"
         style="display:none;fill:#fefefe;fill-opacity:1;fill-rule:nonzero;stroke:none"
         id="path28"
         inkscape:connector-curvature="0" /><path
         d="m 3323.13,1821.56 h -25.45 l -46.78,59.9 v -59.9 h -25.43 v 97.81 h 25.43 l 46.78,-59.82 v 59.82 h 25.45 v -97.81"
         style="display:none;fill:#fefefe;fill-opacity:1;fill-rule:nonzero;stroke:none"
         id="path30"
         inkscape:connector-curvature="0" /><path
         d="m 3399.3,1821.56 h -55.69 v 97.81 h 55.69 v -21.21 h -30.26 v -16.7 h 28.62 v -21.21 h -28.62 v -17.48 h 30.26 v -21.21"
         style="display:none;fill:#fefefe;fill-opacity:1;fill-rule:nonzero;stroke:none"
         id="path32"
         inkscape:connector-curvature="0" /><path
         d="m 3485.86,1823.87 c -8.32,-3.31 -16,-4.96 -23.09,-4.96 -12.32,0 -23.34,3.94 -33.08,11.82 -12.42,10.07 -18.64,23.22 -18.64,39.42 0,16.24 6.22,29.4 18.64,39.49 9.74,7.88 20.84,11.82 33.32,11.82 6.78,0 14.41,-1.66 22.85,-4.96 v -30.45 c -2.38,2.93 -4.82,5.14 -7.32,6.65 -4.56,2.73 -9.42,4.13 -14.63,4.13 -6.61,0 -12.37,-2.03 -17.23,-5.99 -6.17,-5.04 -9.26,-11.92 -9.26,-20.69 0,-8.72 3.09,-15.6 9.26,-20.62 4.86,-3.98 10.62,-5.98 17.23,-5.98 5.21,0 10.07,1.39 14.63,4.11 2.44,1.46 4.88,3.67 7.32,6.64 v -30.43"
         style="display:none;fill:#fefefe;fill-opacity:1;fill-rule:nonzero;stroke:none"
         id="path34"
         inkscape:connector-curvature="0" /><path
         d="m 3559.94,1898.16 h -21.05 v -76.6 h -25.43 v 76.6 h -20.71 v 21.21 h 67.19 v -21.21"
         style="display:none;fill:#fefefe;fill-opacity:1;fill-rule:nonzero;stroke:none"
         id="path36"
         inkscape:connector-curvature="0" /><path
         d="m 2984.75,2058.28 h -37.41 v 25 c 0,7.27 -0.41,11.82 -1.21,13.61 -0.8,1.8 -2.56,2.71 -5.29,2.71 -3.07,0 -5.02,-1.09 -5.86,-3.29 -0.82,-2.19 -1.25,-6.94 -1.25,-14.22 v -66.84 c 0,-6.98 0.43,-11.54 1.25,-13.67 0.84,-2.14 2.7,-3.2 5.61,-3.2 2.77,0 4.61,1.06 5.46,3.2 0.86,2.14 1.29,7.17 1.29,15.06 v 18.09 h 37.41 v -5.62 c 0,-14.89 -1.06,-25.45 -3.15,-31.69 -2.11,-6.21 -6.76,-11.68 -13.96,-16.37 -7.19,-4.68 -16.06,-7.03 -26.6,-7.03 -10.98,0 -20,2 -27.11,5.96 -7.11,3.97 -11.82,9.46 -14.14,16.48 -2.31,7.03 -3.46,17.58 -3.46,31.68 v 42.05 c 0,10.36 0.35,18.14 1.05,23.33 0.73,5.17 2.83,10.17 6.37,14.97 3.52,4.79 8.4,8.58 14.65,11.33 6.27,2.76 13.44,4.13 21.56,4.13 11.02,0 20.12,-2.13 27.29,-6.38 7.16,-4.27 11.87,-9.58 14.12,-15.94 2.26,-6.36 3.38,-16.25 3.38,-29.68 v -13.67"
         style="display:none;fill:#fefefe;fill-opacity:1;fill-rule:nonzero;stroke:none"
         id="path38"
         inkscape:connector-curvature="0" /><path
         d="m 3035.59,2120.93 v -143.88 h -37.43 v 143.88 h 37.43"
         style="display:none;fill:#fefefe;fill-opacity:1;fill-rule:nonzero;stroke:none"
         id="path40"
         inkscape:connector-curvature="0" /><path
         d="m 3088.03,2096.31 v -31.99 c 4.2,0 7.15,0.58 8.83,1.73 1.69,1.16 2.53,4.91 2.53,11.24 v 7.92 c 0,4.56 -0.82,7.54 -2.44,8.97 -1.62,1.43 -4.61,2.13 -8.92,2.13 z m -37.42,24.62 h 26.48 c 17.66,0 29.61,-0.68 35.86,-2.04 6.25,-1.37 11.35,-4.85 15.29,-10.45 3.93,-5.59 5.9,-14.53 5.9,-26.79 0,-11.2 -1.39,-18.72 -4.18,-22.57 -2.77,-3.86 -8.26,-6.17 -16.42,-6.93 7.4,-1.84 12.38,-4.3 14.92,-7.38 2.54,-3.09 4.14,-5.91 4.74,-8.49 0.63,-2.58 0.94,-9.68 0.94,-21.28 v -37.95 h -34.75 v 47.81 c 0,7.7 -0.6,12.46 -1.81,14.31 -1.21,1.84 -4.4,2.75 -9.55,2.75 v -64.87 h -37.42 v 143.88"
         style="display:none;fill:#fefefe;fill-opacity:1;fill-rule:nonzero;stroke:none"
         id="path42"
         inkscape:connector-curvature="0" /><path
         d="m 3236,2058.28 h -37.43 v 25 c 0,7.27 -0.39,11.82 -1.19,13.61 -0.8,1.8 -2.56,2.71 -5.29,2.71 -3.09,0 -5.04,-1.09 -5.86,-3.29 -0.84,-2.19 -1.25,-6.94 -1.25,-14.22 v -66.84 c 0,-6.98 0.41,-11.54 1.25,-13.67 0.82,-2.14 2.7,-3.2 5.59,-3.2 2.79,0 4.61,1.06 5.47,3.2 0.85,2.14 1.28,7.17 1.28,15.06 v 18.09 H 3236 v -5.62 c 0,-14.89 -1.06,-25.45 -3.17,-31.69 -2.09,-6.21 -6.76,-11.68 -13.94,-16.37 -7.21,-4.68 -16.08,-7.03 -26.62,-7.03 -10.96,0 -20,2 -27.11,5.96 -7.11,3.97 -11.82,9.46 -14.12,16.48 -2.33,7.03 -3.48,17.58 -3.48,31.68 v 42.05 c 0,10.36 0.37,18.14 1.07,23.33 0.71,5.17 2.83,10.17 6.35,14.97 3.54,4.79 8.42,8.58 14.67,11.33 6.25,2.76 13.44,4.13 21.56,4.13 11.02,0 20.1,-2.13 27.27,-6.38 7.16,-4.27 11.89,-9.58 14.14,-15.94 2.24,-6.36 3.38,-16.25 3.38,-29.68 v -13.67"
         style="display:none;fill:#fefefe;fill-opacity:1;fill-rule:nonzero;stroke:none"
         id="path44"
         inkscape:connector-curvature="0" /><path
         d="m 3286.84,2120.93 v -115.09 h 22.73 v -28.79 h -60.16 v 143.88 h 37.43"
         style="display:none;fill:#fefefe;fill-opacity:1;fill-rule:nonzero;stroke:none"
         id="path46"
         inkscape:connector-curvature="0" /><path
         d="m 3318.65,2120.93 h 62.39 v -28.8 h -24.99 v -27.28 h 23.38 v -27.37 h -23.38 v -31.64 h 27.47 v -28.79 h -64.87 v 143.88"
         style="display:none;fill:#fefefe;fill-opacity:1;fill-rule:nonzero;stroke:none"
         id="path48"
         inkscape:connector-curvature="0" /><path
         d="m 2932.11,1231.53 c -124.65,-124.63 -124.61,-327.452 0.04,-452.1 124.63,-124.641 327.42,-124.641 452.05,-0.02 124.61,124.61 124.61,327.41 -0.04,452.05 -124.65,124.64 -327.44,124.67 -452.05,0.07 z m 455.41,-455.421 c -126.47,-126.461 -332.23,-126.461 -458.69,0.012 -126.47,126.469 -126.51,332.259 -0.04,458.709 126.44,126.46 332.23,126.41 458.69,-0.04 126.47,-126.48 126.48,-332.231 0.04,-458.681"
         style="fill:#ffffff;fill-opacity:1;fill-rule:nonzero;stroke:none"
         id="path50"
         inkscape:connector-curvature="0" /><path
         d="m 3489.3,3635.27 c -293.32,-293.32 -322.42,-762.07 -67.72,-1090.35 279.4,-359.94 799.51,-425.52 1159.46,-146.19 27.55,21.4 53.98,44.69 78.49,69.2 293.38,293.38 322.56,762.19 67.77,1090.45 -279.39,359.94 -799.53,425.48 -1159.53,146.05 -27.56,-21.36 -53.94,-44.64 -78.47,-69.16 z m 1173.57,-1170.65 -0.02,-0.01 c -24.67,-24.67 -51.23,-48.07 -78.94,-69.59 -361.98,-280.92 -885.06,-214.95 -1166.04,147.03 -256.15,330.14 -226.87,801.54 68.13,1096.54 24.63,24.63 51.17,48.05 78.92,69.57 362.03,280.97 885.14,215.08 1166.08,-146.9 256.21,-330.12 226.89,-801.61 -68.13,-1096.64"
         style="fill:#ffffff;fill-opacity:1;fill-rule:nonzero;stroke:none"
         id="path52"
         inkscape:connector-curvature="0" /><path
         d="m -425.098,2933.84 c -293.476,-293.48 -322.675,-762.26 -67.89,-1090.42 135.293,-174.42 330.468,-285.65 549.4724,-313.24 219.0036,-27.58 435.6836,31.77 610.1366,167.13 27.578,21.39 54.004,44.67 78.535,69.19 293.364,293.35 322.404,762.01 67.578,1090.16 -135.332,174.46 -330.488,285.75 -549.511,313.35 -219.0042,27.61 -435.606,-31.73 -609.942,-167.07 -27.539,-21.39 -53.906,-44.62 -78.379,-69.1 z m 1173.594,-1170.6 -0.039,-0.04 c -24.668,-24.67 -51.23,-48.09 -78.945,-69.59 -175.43,-136.11 -393.36,-195.83 -613.6136,-168.08 -220.2734,27.74 -416.5234,139.61 -552.5974,315.02 -256.211,330 -226.856,801.46 68.281,1096.62 24.609,24.61 51.133,47.97 78.828,69.48 175.313,136.1 393.1642,195.79 613.399,168.03 220.273,-27.77 416.543,-139.67 552.636,-315.14 256.255,-330 227.055,-801.3 -67.949,-1096.3"
         style="display:inline;fill:#ffffff;fill-opacity:1;fill-rule:nonzero;stroke:none"
         id="path54"
         inkscape:connector-curvature="0" /><path
         d="M 884.297,2667.86 C 507.813,2291.37 470.527,1689.85 797.559,1268.69 971.113,1044.91 1221.46,902.191 1502.44,866.75 c 281.02,-35.398 558.99,40.711 782.77,214.4 35.4,27.48 69.32,57.39 100.84,88.89 376.53,376.46 413.87,977.88 86.86,1398.98 -173.61,223.82 -424,366.62 -705,402.07 -281.03,35.45 -559.02,-40.67 -782.793,-214.35 -35.429,-27.5 -69.336,-57.39 -100.82,-88.88 z m 1505.133,-1501.08 -0.05,-0.07 c -31.67,-31.62 -65.75,-61.67 -101.31,-89.27 C 2063.32,903.02 1784.1,826.5 1501.86,862.109 1219.63,897.691 968.184,1041.05 793.867,1265.81 c -328.496,423.04 -291.054,1027.22 87.11,1405.37 31.601,31.61 65.683,61.65 101.269,89.27 224.764,174.45 503.984,250.91 786.234,215.28 282.26,-35.61 533.75,-179.02 708.14,-403.83 328.42,-422.94 290.94,-1027 -87.19,-1405.12"
         style="fill:#ffffff;fill-opacity:1;fill-rule:nonzero;stroke:none"
         id="path56"
         inkscape:connector-curvature="0" /><path
         d="M 1546.39,1495.93 C 1253.13,1202.66 1224.06,733.98 1478.77,405.711 1758.16,45.7813 2278.36,-19.8203 2638.36,259.492 c 27.56,21.399 53.96,44.68 78.5,69.199 293.37,293.34 322.5,762.109 67.73,1090.359 -135.41,174.48 -330.59,285.74 -549.55,313.33 -218.99,27.64 -435.61,-31.74 -609.98,-167.15 -27.66,-21.44 -54.12,-44.76 -78.67,-69.3 z M 2720.2,325.391 l -0.02,-0.02 c -24.67,-24.672 -51.22,-48.051 -78.93,-69.59 -362.07,-280.8826 -885.21,-214.9216 -1166.17,147.071 -256.17,330.097 -226.95,801.448 67.99,1096.388 24.7,24.7 51.32,48.15 79.1,69.7 175.37,136.19 393.22,195.88 613.47,168.12 220.22,-27.76 416.49,-139.67 552.66,-315.12 256.19,-330.1 226.9,-801.549 -68.1,-1096.549"
         style="fill:#ffffff;fill-opacity:1;fill-rule:nonzero;stroke:none"
         id="path58"
         inkscape:connector-curvature="0" /><path
         d="M 38.0078,2224.87 C -265.039,1921.82 -314.531,1441.27 -79.668,1082.23 195.449,661.852 761.25,543.59 1181.64,818.629 c 52.77,34.543 101.97,74.492 146.21,118.723 l 0.06,0.046 c 302.93,302.952 352.23,783.452 117.23,1142.572 -274.89,420.2 -840.628,538.38 -1261.117,263.49 C 131.309,2308.94 82.1875,2269.03 38.0078,2224.87 Z M 1331.21,934.102 l -0.06,-0.063 C 1286.7,889.582 1237.25,849.43 1184.2,814.73 761.68,538.262 192.949,657.109 -83.5742,1079.66 c -115.8208,177.03 -166.9728,390.16 -144.0428,600.12 22.656,207.15 115.801,401.91 262.324,548.41 44.375,44.39 93.75,84.49 146.738,119.19 422.657,276.31 991.305,157.48 1267.595,-264.84 115.94,-177.1 167.15,-390.28 144.3,-600.25 -22.58,-207.06 -115.68,-401.74 -262.13,-548.188"
         style="fill:#ffffff;fill-opacity:1;fill-rule:nonzero;stroke:none"
         id="path60"
         inkscape:connector-curvature="0" /><path
         d="m 2344.16,2769.77 c -306.33,-306.33 -356.31,-792.1 -118.85,-1155.09 278.21,-424.97 850.26,-544.47 1275.22,-266.42 53.4,34.94 103.18,75.34 147.93,120.07 306.36,306.36 356.17,792.1 118.43,1155.01 -134.6,205.88 -341.38,346.97 -582.24,397.29 -240.86,50.31 -486.9,3.81 -692.77,-130.94 -53.34,-34.89 -103.03,-75.25 -147.72,-119.92 z m 1307.62,-1304.73 -0.02,-0.01 c -44.96,-44.96 -95,-85.57 -148.65,-120.68 -427.13,-279.5 -1002.11,-159.37 -1281.7,267.76 -117.07,178.96 -168.79,394.38 -145.63,606.64 22.85,209.39 116.99,406.27 265.06,554.34 44.92,44.9 94.86,85.45 148.46,120.53 206.95,135.44 454.25,182.17 696.31,131.6 242.09,-50.58 449.92,-192.38 585.19,-399.31 117.23,-178.95 169.06,-394.37 145.96,-606.61 -22.8,-209.32 -116.9,-406.18 -264.98,-554.26"
         style="fill:#ffffff;fill-opacity:1;fill-rule:nonzero;stroke:none"
         id="path62"
         inkscape:connector-curvature="0" /><path
         d="m 4328.38,4143.52 c -234.59,-234.57 -272.77,-606.5 -90.82,-884.38 212.87,-325.37 650.82,-416.92 976.27,-204.08 40.88,26.78 78.96,57.67 113.22,91.93 234.55,234.57 272.75,606.55 90.86,884.47 -212.91,325.29 -650.94,416.77 -976.41,203.94 -40.86,-26.75 -78.9,-57.65 -113.12,-91.88 z m 1001.97,-999.85 v 0 c -34.45,-34.47 -72.81,-65.59 -113.96,-92.52 -327.62,-214.28 -768.48,-122.13 -982.74,205.43 -89.86,137.21 -129.59,302.42 -111.85,465.15 17.5,160.56 89.68,311.51 203.26,425.1 34.45,34.45 72.75,65.55 113.89,92.49 327.63,214.27 768.55,122.14 982.89,-205.3 89.82,-137.22 129.51,-302.44 111.75,-465.24 -17.5,-160.56 -89.7,-311.55 -203.24,-425.11"
         style="fill:#ffffff;fill-opacity:1;fill-rule:nonzero;stroke:none"
         id="path64"
         inkscape:connector-curvature="0" /><path
         d="m 3486.54,4756.05 c -234.74,-234.74 -272.99,-606.65 -90.93,-884.32 103.12,-157.77 261.48,-265.87 445.93,-304.41 184.4,-38.53 372.76,-2.91 530.39,100.27 40.84,26.71 78.91,57.61 113.13,91.82 l 0.04,0.05 c 234.55,234.55 272.73,606.52 90.8,884.49 -212.93,325.29 -650.86,416.81 -976.23,204 -40.86,-26.76 -78.93,-57.68 -113.13,-91.9 z m 1001.9,-999.9 -0.06,-0.06 c -34.45,-34.45 -72.75,-65.54 -113.87,-92.43 -158.69,-103.88 -348.32,-139.72 -533.94,-100.92 -185.65,38.76 -345.08,147.61 -448.87,306.44 -89.94,137.14 -129.67,302.32 -111.88,465.07 17.52,160.51 89.77,311.48 203.4,425.13 34.46,34.45 72.76,65.56 113.87,92.5 327.54,214.21 768.4,122.08 982.73,-205.38 89.85,-137.24 129.54,-302.48 111.8,-465.27 -17.5,-160.59 -89.67,-311.55 -203.18,-425.08"
         style="fill:#ffffff;fill-opacity:1;fill-rule:nonzero;stroke:none"
         id="path66"
         inkscape:connector-curvature="0" /><path
         d="m 3969.92,2680.75 c -234.57,-234.58 -272.73,-606.53 -90.76,-884.4 103.11,-157.68 261.47,-265.73 445.88,-304.29 184.41,-38.54 372.79,-2.98 530.41,100.17 40.84,26.74 78.91,57.62 113.16,91.86 234.61,234.56 272.82,606.61 90.86,884.57 -212.97,325.33 -650.99,416.8 -976.48,203.88 -40.82,-26.71 -78.87,-57.6 -113.07,-91.79 z m 1002.03,-999.93 -0.04,-0.04 c -34.45,-34.45 -72.79,-65.57 -113.88,-92.47 -158.69,-103.84 -348.32,-139.66 -533.95,-100.83 -185.66,38.79 -345.06,147.58 -448.83,306.29 -89.86,137.22 -129.59,302.42 -111.87,465.19 17.5,160.55 89.67,311.55 203.24,425.1 34.4,34.42 72.72,65.51 113.81,92.4 327.66,214.34 768.61,122.28 982.95,-205.23 89.84,-137.25 129.55,-302.48 111.82,-465.31 -17.5,-160.58 -89.69,-311.55 -203.25,-425.1"
         style="fill:#ffffff;fill-opacity:1;fill-rule:nonzero;stroke:none"
         id="path68"
         inkscape:connector-curvature="0" /><path
         d="m 2952.3,1255.04 c 28.66,-28.65 28.66,-75.04 0,-103.69 -28.67,-28.67 -75.03,-28.65 -103.69,0 -28.65,28.63 -28.69,75.05 -0.02,103.71 28.66,28.66 75.08,28.62 103.71,-0.02"
         style="fill:#ffffff;fill-opacity:1;fill-rule:nonzero;stroke:none"
         id="path70"
         inkscape:connector-curvature="0" /><path
         d="m 3939.02,2284.8 c 21.12,-21.11 21.12,-55.31 0,-76.42 -21.09,-21.1 -55.31,-21.1 -76.42,0.01 -21.1,21.09 -21.1,55.3 0.02,76.4 21.11,21.1 55.31,21.1 76.4,0.01"
         style="fill:#ffffff;fill-opacity:1;fill-rule:nonzero;stroke:none"
         id="path72"
         inkscape:connector-curvature="0" /><path
         d="m 2970.23,775.332 c 10.32,-10.312 10.32,-27 0,-37.301 -10.29,-10.312 -26.99,-10.312 -37.3,0 -10.31,10.321 -10.31,27.008 0,37.321 10.29,10.289 26.99,10.289 37.3,-0.02"
         style="fill:#ffffff;fill-opacity:1;fill-rule:nonzero;stroke:none"
         id="path74"
         inkscape:connector-curvature="0" /><path
         d="m 3370.08,1286.18 c 10.29,-10.31 10.29,-27 -0.02,-37.31 -10.29,-10.3 -26.99,-10.3 -37.29,0.01 -10.33,10.32 -10.33,27.01 -0.02,37.31 10.3,10.31 27,10.31 37.33,-0.01"
         style="fill:#ffffff;fill-opacity:1;fill-rule:nonzero;stroke:none"
         id="path76"
         inkscape:connector-curvature="0" /><path
         d="m 3786.97,2297.53 c 10.33,-10.32 10.33,-27 0.02,-37.32 -10.31,-10.31 -26.99,-10.3 -37.32,0.02 -10.29,10.3 -10.29,26.98 0.02,37.29 10.31,10.3 26.99,10.31 37.28,0.01"
         style="fill:#ffffff;fill-opacity:1;fill-rule:nonzero;stroke:none"
         id="path78"
         inkscape:connector-curvature="0" /><path
         d="m 3855.39,2518.22 c 10.31,-10.31 10.31,-27.01 0.02,-37.32 -10.31,-10.31 -27.01,-10.31 -37.32,0.02 -10.32,10.28 -10.32,26.97 0,37.28 10.31,10.33 27.01,10.33 37.3,0.02"
         style="fill:#ffffff;fill-opacity:1;fill-rule:nonzero;stroke:none"
         id="path80"
         inkscape:connector-curvature="0" /><path
         d="m 4885.06,2801.17 c 13.65,-13.66 13.65,-35.71 0,-49.37 -13.65,-13.67 -35.72,-13.68 -49.4,-0.02 -13.65,13.66 -13.65,35.74 0,49.4 13.68,13.66 35.75,13.64 49.4,-0.01"
         style="fill:#ffffff;fill-opacity:1;fill-rule:nonzero;stroke:none"
         id="path82"
         inkscape:connector-curvature="0" /><path
         d="m 3890.14,1832.73 c 13.65,-13.67 13.63,-35.73 0,-49.37 -13.66,-13.64 -35.73,-13.66 -49.38,0 -13.67,13.66 -13.67,35.72 -0.02,49.37 13.65,13.66 35.72,13.66 49.4,0"
         style="fill:#ffffff;fill-opacity:1;fill-rule:nonzero;stroke:none"
         id="path84"
         inkscape:connector-curvature="0" /><path
         d="m 4927.15,2968.52 c 13.63,-13.66 13.65,-35.72 0,-49.36 -13.65,-13.67 -35.74,-13.67 -49.38,-0.02 -13.65,13.65 -13.65,35.72 0,49.38 13.68,13.65 35.73,13.65 49.38,0"
         style="fill:#ffffff;fill-opacity:1;fill-rule:nonzero;stroke:none"
         id="path86"
         inkscape:connector-curvature="0" /><path
         d="m 4147.62,3587.97 c 13.65,-13.63 13.65,-35.68 -0.02,-49.35 -13.65,-13.66 -35.71,-13.66 -49.36,-0.01 -13.65,13.66 -13.67,35.73 0,49.39 13.65,13.65 35.72,13.63 49.38,-0.03"
         style="fill:#ffffff;fill-opacity:1;fill-rule:nonzero;stroke:none"
         id="path88"
         inkscape:connector-curvature="0" /><path
         d="m 4515.74,3792.83 c 13.65,-13.66 13.65,-35.72 -0.02,-49.39 -13.65,-13.65 -35.7,-13.65 -49.35,0 -13.67,13.66 -13.67,35.7 0,49.37 13.65,13.65 35.72,13.66 49.37,0.02"
         style="fill:#ffffff;fill-opacity:1;fill-rule:nonzero;stroke:none"
         id="path90"
         inkscape:connector-curvature="0" /><path
         d="m 4179.73,3899.3 c 13.65,-13.66 13.67,-35.73 0.02,-49.38 -13.66,-13.66 -35.73,-13.66 -49.4,0 -13.65,13.63 -13.61,35.71 0.02,49.37 13.67,13.65 35.7,13.65 49.36,0.01"
         style="fill:#ffffff;fill-opacity:1;fill-rule:nonzero;stroke:none"
         id="path92"
         inkscape:connector-curvature="0" /><path
         d="m 3571.39,3720.66 c 13.65,-13.65 13.65,-35.74 -0.02,-49.39 -13.66,-13.67 -35.74,-13.67 -49.4,-0.01 -13.63,13.64 -13.63,35.73 0.02,49.38 13.65,13.67 35.74,13.67 49.4,0.02"
         style="fill:#ffffff;fill-opacity:1;fill-rule:nonzero;stroke:none"
         id="path94"
         inkscape:connector-curvature="0" /><path
         d="m 781.895,2535.08 c 24.492,-24.47 24.472,-64.21 0,-88.69 -24.473,-24.5 -64.219,-24.5 -88.692,0 -24.492,24.48 -24.473,64.21 0,88.69 24.473,24.46 64.219,24.48 88.692,0"
         style="fill:#ffffff;fill-opacity:1;fill-rule:nonzero;stroke:none"
         id="path96"
         inkscape:connector-curvature="0" /><path
         d="m 930.332,2717.25 c 14.961,-14.97 14.961,-39.26 0,-54.21 -14.961,-14.97 -39.238,-14.97 -54.199,0 -14.961,14.96 -14.961,39.24 0,54.22 14.941,14.95 39.238,14.95 54.199,-0.01"
         style="fill:#ffffff;fill-opacity:1;fill-rule:nonzero;stroke:none"
         id="path98"
         inkscape:connector-curvature="0" /><path
         d="m 1306.05,2947.44 c 14.97,-14.96 14.97,-39.23 0,-54.21 -14.96,-14.96 -39.23,-14.94 -54.19,0.01 -14.97,14.97 -14.97,39.24 0,54.2 14.96,14.96 39.23,14.96 54.19,0"
         style="fill:#ffffff;fill-opacity:1;fill-rule:nonzero;stroke:none"
         id="path100"
         inkscape:connector-curvature="0" /><path
         d="m 1010.33,2472.21 c 14.96,-14.97 14.98,-39.24 0,-54.2 -14.959,-14.97 -39.236,-14.96 -54.197,0 -14.961,14.97 -14.981,39.23 0,54.2 14.961,14.96 39.238,14.98 54.197,0"
         style="fill:#ffffff;fill-opacity:1;fill-rule:nonzero;stroke:none"
         id="path102"
         inkscape:connector-curvature="0" /><path
         d="m 632.246,1674.79 c 14.961,-14.96 14.961,-39.22 0,-54.18 -14.98,-14.98 -39.238,-14.98 -54.219,-0.01 -14.961,14.97 -14.961,39.24 0,54.2 14.961,14.99 39.239,14.97 54.219,-0.01"
         style="fill:#ffffff;fill-opacity:1;fill-rule:nonzero;stroke:none"
         id="path104"
         inkscape:connector-curvature="0" /><path
         d="m 1342.07,948.23 c 21.82,-21.82 21.84,-57.21 0,-79.05 -21.82,-21.821 -57.23,-21.821 -79.04,0 -21.84,21.84 -21.82,57.23 0,79.05 21.83,21.829 57.2,21.84 79.04,0"
         style="fill:#ffffff;fill-opacity:1;fill-rule:nonzero;stroke:none"
         id="path106"
         inkscape:connector-curvature="0" /><path
         d="m 2343.13,2772.03 c 18.16,-18.17 18.16,-47.61 -0.02,-65.78 -18.17,-18.17 -47.62,-18.18 -65.79,0 -18.18,18.15 -18.18,47.64 -0.02,65.78 18.19,18.19 47.64,18.18 65.83,0"
         style="fill:#ffffff;fill-opacity:1;fill-rule:nonzero;stroke:none"
         id="path108"
         inkscape:connector-curvature="0" /><path
         d="m 2206.35,2583.9 c 13.69,-13.69 13.71,-35.89 0.02,-49.59 -13.69,-13.7 -35.92,-13.69 -49.59,0 -13.69,13.7 -13.71,35.9 -0.02,49.61 13.69,13.68 35.9,13.66 49.59,-0.02"
         style="fill:#ffffff;fill-opacity:1;fill-rule:nonzero;stroke:none"
         id="path110"
         inkscape:connector-curvature="0" /><path
         d="m 1618.16,1571.01 c 13.68,-13.69 13.68,-35.89 -0.02,-49.58 -13.69,-13.7 -35.87,-13.67 -49.57,0 -13.67,13.69 -13.71,35.89 -0.02,49.6 13.7,13.69 35.92,13.67 49.61,-0.02"
         style="fill:#ffffff;fill-opacity:1;fill-rule:nonzero;stroke:none"
         id="path112"
         inkscape:connector-curvature="0" /><path
         d="m 2175.47,1768.11 c 13.67,-13.68 13.67,-35.89 -0.02,-49.57 -13.67,-13.69 -35.9,-13.71 -49.57,-0.02 -13.69,13.69 -13.69,35.91 0,49.6 13.69,13.68 35.88,13.68 49.59,-0.01"
         style="fill:#ffffff;fill-opacity:1;fill-rule:nonzero;stroke:none"
         id="path114"
         inkscape:connector-curvature="0" /><path
         d="m 2538.69,1355.29 c 13.69,-13.68 13.69,-35.91 0,-49.59 -13.67,-13.69 -35.9,-13.67 -49.59,0 -13.67,13.68 -13.69,35.91 0,49.59 13.69,13.69 35.92,13.68 49.59,0"
         style="fill:#ffffff;fill-opacity:1;fill-rule:nonzero;stroke:none"
         id="path116"
         inkscape:connector-curvature="0" /><path
         d="m 2665.8,1600.05 c 13.67,-13.69 13.69,-35.91 0,-49.6 -13.67,-13.68 -35.92,-13.67 -49.59,0 -13.69,13.69 -13.69,35.91 0,49.61 13.69,13.68 35.92,13.67 49.59,-0.01"
         style="fill:#ffffff;fill-opacity:1;fill-rule:nonzero;stroke:none"
         id="path118"
         inkscape:connector-curvature="0" /><path
         d="m 2423.85,2675.23 c 11.54,-11.55 11.52,-30.29 -0.02,-41.82 -11.56,-11.57 -30.31,-11.58 -41.86,-0.05 -11.54,11.58 -11.54,30.32 0,41.89 11.57,11.55 30.32,11.55 41.88,-0.02"
         style="fill:#ffffff;fill-opacity:1;fill-rule:nonzero;stroke:none"
         id="path120"
         inkscape:connector-curvature="0" /><path
         d="m 2750.9,3025.49 c 11.54,-11.54 11.54,-30.31 -0.02,-41.88 -11.54,-11.53 -30.29,-11.53 -41.84,0 -11.56,11.56 -11.56,30.31 0,41.86 11.55,11.56 30.32,11.56 41.86,0.02"
         style="fill:#ffffff;fill-opacity:1;fill-rule:nonzero;stroke:none"
         id="path122"
         inkscape:connector-curvature="0" /><path
         d="m 3270.35,3027.62 c 12.93,-12.91 12.93,-33.89 0,-46.84 -12.93,-12.92 -33.9,-12.91 -46.81,0 -12.95,12.96 -12.95,33.91 0,46.84 12.92,12.93 33.86,12.94 46.81,0"
         style="fill:#ffffff;fill-opacity:1;fill-rule:nonzero;stroke:none"
         id="path124"
         inkscape:connector-curvature="0" /></g></g></svg>